<?xml version="1.0" standalone="no"?>
<svg version="1.0" xmlns="http://www.w3.org/2000/svg"
 width="512.000000pt" height="512.000000pt" viewBox="0 0 512.000000 512.000000"
 preserveAspectRatio="xMidYMid meet">

<g transform="translate(0.000000,512.000000) scale(0.100000,-0.100000)"
fill="#2675E2" stroke="none">
<path d="M1147 4680 c-329 -56 -582 -281 -684 -607 l-28 -88 -3 -959 c-3
-1045 -3 -1043 54 -1195 74 -198 236 -371 435 -466 79 -37 212 -75 264 -75 18
0 46 -3 63 -6 l31 -6 3 -347 3 -346 25 -45 c35 -63 95 -102 165 -108 104 -9
118 3 557 448 l394 399 769 3 c760 4 771 4 850 26 274 76 495 272 589 523 57
152 57 150 54 1195 l-3 959 -28 88 c-91 293 -291 493 -584 584 l-88 28 -1395
1 c-767 1 -1417 -2 -1443 -6z m588 -1401 c192 -90 247 -345 107 -500 -55 -61
-110 -94 -184 -109 -110 -22 -217 17 -299 108 -188 209 -26 543 256 529 47 -3
87 -12 120 -28z m960 0 c192 -90 247 -345 107 -500 -55 -61 -110 -94 -184
-109 -110 -22 -217 17 -299 108 -188 209 -26 543 256 529 47 -3 87 -12 120
-28z m960 0 c192 -90 247 -345 107 -500 -55 -61 -110 -94 -184 -109 -110 -22
-217 17 -299 108 -188 209 -26 543 256 529 47 -3 87 -12 120 -28z"/>
</g>
</svg>
